<svg width="14" height="14" viewBox="0 0 14 14" fill="none" xmlns="http://www.w3.org/2000/svg">
<g clip-path="url(#clip0_209_20)">
<rect width="2" height="2" fill="black"/>
<rect x="3" width="2" height="2" fill="black"/>
<rect x="6" width="2" height="2" fill="black"/>
<rect x="9" width="2" height="2" fill="black"/>
<rect x="12" width="2" height="2" fill="black"/>
<rect y="3" width="2" height="2" fill="black"/>
<rect x="3" y="3" width="2" height="2" fill="black"/>
<rect x="6" y="3" width="2" height="2" fill="black"/>
<rect x="9" y="3" width="2" height="2" fill="black"/>
<rect x="12" y="3" width="2" height="2" fill="black"/>
<rect y="6" width="2" height="2" fill="black"/>
<rect x="3" y="6" width="2" height="2" fill="black"/>
<rect x="6" y="6" width="2" height="2" fill="black"/>
<rect x="9" y="6" width="2" height="2" fill="black"/>
<rect x="12" y="6" width="2" height="2" fill="black"/>
<rect y="9" width="2" height="2" fill="black"/>
<rect x="3" y="9" width="2" height="2" fill="black"/>
<rect x="6" y="9" width="2" height="2" fill="black"/>
<rect x="9" y="9" width="2" height="2" fill="black"/>
<rect x="12" y="9" width="2" height="2" fill="black"/>
<rect y="12" width="2" height="2" fill="black"/>
<rect x="3" y="12" width="2" height="2" fill="black"/>
<rect x="6" y="12" width="2" height="2" fill="black"/>
<rect x="9" y="12" width="2" height="2" fill="black"/>
<rect x="12" y="12" width="2" height="2" fill="black"/>
</g>
<defs>
<clipPath id="clip0_209_20">
<rect width="14" height="14" fill="white"/>
</clipPath>
</defs>
</svg>
